<svg width="163" height="53" viewBox="0 0 163 53" fill="none" xmlns="http://www.w3.org/2000/svg">
<path d="M74.4542 48.8025H73.279V52.0028H72.7963V48.8025H71.6211V48.3828H74.4542V48.8025Z" fill="white"/>
<path d="M80.5631 51.6041L80.5526 52.0028H78.3281V48.3828H80.5526V48.7815H78.8213V49.9882H80.2273V50.366H78.8213V51.6041H80.5631Z" fill="white"/>
<path d="M87.1112 51.2581C87.1374 51.2581 87.1636 51.2686 87.1846 51.2896L87.3735 51.4994C87.2266 51.6673 87.0482 51.8011 86.8384 51.8981C86.6285 51.9978 86.3714 52.045 86.0724 52.045C85.8127 52.045 85.574 52.0005 85.3589 51.9086C85.149 51.8194 84.9654 51.6935 84.8132 51.5309C84.6663 51.3709 84.5509 51.1794 84.467 50.9538C84.3883 50.7229 84.3516 50.4711 84.3516 50.1983C84.3516 49.9255 84.3935 49.6789 84.4775 49.4533C84.5614 49.2225 84.6795 49.0284 84.8342 48.8657C84.9942 48.6978 85.1831 48.5719 85.4008 48.488C85.616 48.3988 85.8547 48.3516 86.1144 48.3516C86.3714 48.3516 86.5997 48.3935 86.7964 48.4775C86.9984 48.5562 87.1741 48.6637 87.321 48.8028L87.1636 49.0336C87.1479 49.0493 87.1348 49.0625 87.1217 49.0756C87.1059 49.0834 87.0849 49.0861 87.0587 49.0861C87.022 49.0861 86.9853 49.0729 86.9433 49.0441C86.9013 49.01 86.8436 48.9706 86.7754 48.9287C86.7046 48.8867 86.6128 48.8526 86.5026 48.8237C86.3977 48.7896 86.2665 48.7713 86.1144 48.7713C85.9255 48.7713 85.7524 48.8028 85.6002 48.8657C85.4454 48.9287 85.3117 49.0231 85.2015 49.149C85.0887 49.2749 85.0021 49.4271 84.9392 49.6002C84.8762 49.776 84.8447 49.9753 84.8447 50.1983C84.8447 50.4239 84.8762 50.6259 84.9392 50.8069C85.0074 50.9826 85.0992 51.1295 85.212 51.2476C85.3222 51.3683 85.4533 51.4627 85.6002 51.5309C85.7524 51.5939 85.9202 51.6253 86.1039 51.6253C86.2088 51.6253 86.3032 51.6201 86.3872 51.6043C86.4764 51.5912 86.5577 51.5702 86.6285 51.5414C86.7046 51.5152 86.7754 51.4837 86.8384 51.447C86.9013 51.405 86.9643 51.3525 87.0272 51.2896C87.0535 51.2686 87.0823 51.2581 87.1112 51.2581Z" fill="white"/>
<path d="M94.1892 48.3828V52.0028H93.7066V50.3555H91.7549V52.0028H91.2617V48.3828H91.7549V49.9987H93.7066V48.3828H94.1892Z" fill="white"/>
<path d="M101.381 48.3828V52.0028H101.139C101.097 52.0028 101.061 51.9976 101.034 51.9819C101.013 51.9687 100.987 51.9478 100.961 51.9189L98.8728 49.1908C98.8728 49.2327 98.8728 49.2747 98.8728 49.3167C98.8781 49.3534 98.8833 49.3875 98.8833 49.4216V52.0028H98.4531V48.3828H98.705C98.7259 48.3828 98.7417 48.3881 98.7574 48.3933C98.7784 48.3933 98.7915 48.3986 98.7994 48.4038C98.8125 48.4117 98.823 48.4222 98.8309 48.4353C98.844 48.4431 98.8571 48.4536 98.8728 48.4668L100.971 51.1949C100.964 51.1529 100.956 51.111 100.95 51.069C100.95 51.027 100.95 50.985 100.95 50.9431V48.3828H101.381Z" fill="white"/>
<path d="M108.959 50.1983C108.959 50.4711 108.917 50.7203 108.834 50.9433C108.75 51.1689 108.626 51.363 108.466 51.5309C108.311 51.6935 108.123 51.8194 107.9 51.9086C107.682 52.0005 107.441 52.045 107.176 52.045C106.908 52.045 106.667 52.0005 106.452 51.9086C106.234 51.8194 106.045 51.6935 105.885 51.5309C105.73 51.363 105.612 51.1689 105.528 50.9433C105.444 50.7203 105.402 50.4711 105.402 50.1983C105.402 49.9255 105.444 49.6789 105.528 49.4533C105.612 49.2225 105.73 49.0284 105.885 48.8657C106.045 48.6978 106.234 48.5719 106.452 48.488C106.667 48.3988 106.908 48.3516 107.176 48.3516C107.441 48.3516 107.682 48.3988 107.9 48.488C108.123 48.5719 108.311 48.6978 108.466 48.8657C108.626 49.0284 108.75 49.2225 108.834 49.4533C108.917 49.6789 108.959 49.9255 108.959 50.1983ZM108.466 50.1983C108.466 49.9753 108.435 49.776 108.372 49.6002C108.309 49.4271 108.22 49.2802 108.109 49.1595C108.005 49.0336 107.871 48.9392 107.711 48.8762C107.548 48.808 107.37 48.7713 107.176 48.7713C106.987 48.7713 106.811 48.808 106.651 48.8762C106.496 48.9392 106.362 49.0336 106.252 49.1595C106.139 49.2802 106.053 49.4271 105.99 49.6002C105.927 49.776 105.896 49.9753 105.896 50.1983C105.896 50.4239 105.927 50.6233 105.99 50.7964C106.053 50.9722 106.139 51.1217 106.252 51.2476C106.362 51.3683 106.496 51.4574 106.651 51.5204C106.811 51.5834 106.987 51.6148 107.176 51.6148C107.37 51.6148 107.548 51.5834 107.711 51.5204C107.871 51.4574 108.005 51.3683 108.109 51.2476C108.22 51.1217 108.309 50.9722 108.372 50.7964C108.435 50.6233 108.466 50.4239 108.466 50.1983Z" fill="white"/>
<path d="M115.061 51.5936V52.0028H113.004V48.3828H113.487V51.5936H115.061Z" fill="white"/>
<path d="M122.276 50.1983C122.276 50.4711 122.234 50.7203 122.15 50.9433C122.066 51.1689 121.943 51.363 121.783 51.5309C121.628 51.6935 121.439 51.8194 121.216 51.9086C120.998 52.0005 120.757 52.045 120.492 52.045C120.224 52.045 119.983 52.0005 119.768 51.9086C119.55 51.8194 119.361 51.6935 119.201 51.5309C119.047 51.363 118.929 51.1689 118.845 50.9433C118.761 50.7203 118.719 50.4711 118.719 50.1983C118.719 49.9255 118.761 49.6789 118.845 49.4533C118.929 49.2225 119.047 49.0284 119.201 48.8657C119.361 48.6978 119.55 48.5719 119.768 48.488C119.983 48.3988 120.224 48.3516 120.492 48.3516C120.757 48.3516 120.998 48.3988 121.216 48.488C121.439 48.5719 121.628 48.6978 121.783 48.8657C121.943 49.0284 122.066 49.2225 122.15 49.4533C122.234 49.6789 122.276 49.9255 122.276 50.1983ZM121.783 50.1983C121.783 49.9753 121.751 49.776 121.688 49.6002C121.625 49.4271 121.536 49.2802 121.426 49.1595C121.321 49.0336 121.187 48.9392 121.027 48.8762C120.865 48.808 120.686 48.7713 120.492 48.7713C120.303 48.7713 120.127 48.808 119.967 48.8762C119.813 48.9392 119.679 49.0336 119.569 49.1595C119.456 49.2802 119.369 49.4271 119.306 49.6002C119.243 49.776 119.212 49.9753 119.212 50.1983C119.212 50.4239 119.243 50.6233 119.306 50.7964C119.369 50.9722 119.456 51.1217 119.569 51.2476C119.679 51.3683 119.813 51.4574 119.967 51.5204C120.127 51.5834 120.303 51.6148 120.492 51.6148C120.686 51.6148 120.865 51.5834 121.027 51.5204C121.187 51.4574 121.321 51.3683 121.426 51.2476C121.536 51.1217 121.625 50.9722 121.688 50.7964C121.751 50.6233 121.783 50.4239 121.783 50.1983Z" fill="white"/>
<path d="M129.229 50.2613V51.6568C129.045 51.7827 128.851 51.8824 128.641 51.9506C128.436 52.0136 128.213 52.045 127.97 52.045C127.676 52.045 127.408 52.0005 127.172 51.9086C126.941 51.8194 126.742 51.6935 126.574 51.5309C126.411 51.3709 126.285 51.1794 126.196 50.9538C126.112 50.7229 126.07 50.4711 126.07 50.1983C126.07 49.9202 126.112 49.6684 126.196 49.4428C126.28 49.212 126.401 49.0179 126.563 48.8552C126.723 48.6952 126.915 48.5719 127.141 48.488C127.371 48.3988 127.629 48.3516 127.917 48.3516C128.056 48.3516 128.185 48.3621 128.305 48.383C128.431 48.404 128.547 48.4355 128.652 48.4775C128.756 48.5142 128.854 48.5588 128.945 48.6139C129.035 48.6716 129.118 48.7346 129.197 48.8028L129.061 49.0231C129.032 49.0598 129 49.0834 128.966 49.0966C128.937 49.1044 128.903 49.0939 128.861 49.0651C128.819 49.0441 128.77 49.0179 128.715 48.9811C128.665 48.947 128.602 48.9156 128.526 48.8867C128.455 48.8526 128.368 48.8237 128.263 48.8028C128.158 48.7818 128.035 48.7713 127.896 48.7713C127.691 48.7713 127.508 48.808 127.34 48.8762C127.177 48.9392 127.038 49.0336 126.92 49.1595C126.807 49.2802 126.721 49.4297 126.658 49.6107C126.595 49.7865 126.563 49.9832 126.563 50.1983C126.563 50.4239 126.595 50.6259 126.658 50.8069C126.726 50.9826 126.821 51.1322 126.941 51.2581C127.059 51.384 127.204 51.4837 127.371 51.5519C127.545 51.6148 127.741 51.6463 127.959 51.6463C128.127 51.6463 128.274 51.6306 128.4 51.5939C128.531 51.5519 128.662 51.4994 128.788 51.4365V50.639H128.221C128.192 50.639 128.169 50.6338 128.148 50.618C128.127 50.597 128.116 50.5734 128.116 50.5446V50.2613H129.229Z" fill="white"/>
<path d="M133.817 52.0028H133.324V48.3828H133.817V52.0028Z" fill="white"/>
<path d="M140.274 51.6041L140.264 52.0028H138.039V48.3828H140.264V48.7815H138.532V49.9882H139.938V50.366H138.532V51.6041H140.274Z" fill="white"/>
<path d="M146.129 48.9497C146.113 48.9785 146.097 48.9995 146.076 49.0126C146.061 49.0205 146.04 49.0231 146.013 49.0231C145.985 49.0231 145.95 49.01 145.908 48.9811C145.872 48.9549 145.827 48.9234 145.772 48.8867C145.714 48.8526 145.646 48.8211 145.562 48.7923C145.478 48.766 145.379 48.7503 145.268 48.7503C145.156 48.7503 145.059 48.7687 144.975 48.8028C144.891 48.8316 144.82 48.871 144.765 48.9182C144.707 48.968 144.665 49.0284 144.639 49.0966C144.61 49.1674 144.597 49.2408 144.597 49.3169C144.597 49.4166 144.62 49.5005 144.67 49.5687C144.718 49.6317 144.786 49.6894 144.87 49.7366C144.954 49.7865 145.043 49.8284 145.142 49.8625C145.247 49.8993 145.352 49.9334 145.457 49.9675C145.567 50.0042 145.678 50.0462 145.783 50.0934C145.887 50.1353 145.977 50.1957 146.055 50.2718C146.139 50.3426 146.205 50.4291 146.255 50.5341C146.302 50.6338 146.328 50.7544 146.328 50.9013C146.328 51.064 146.299 51.2135 146.244 51.3525C146.194 51.4942 146.118 51.6148 146.013 51.7198C145.908 51.8194 145.777 51.8981 145.625 51.9611C145.478 52.0162 145.31 52.045 145.122 52.045C144.883 52.045 144.665 52.0031 144.471 51.9191C144.282 51.8352 144.119 51.7198 143.988 51.5729L144.125 51.342C144.138 51.321 144.156 51.3053 144.177 51.2896C144.198 51.2764 144.219 51.2686 144.24 51.2686C144.261 51.2686 144.285 51.2791 144.314 51.3001C144.34 51.321 144.371 51.3473 144.408 51.3735C144.442 51.3945 144.481 51.4233 144.523 51.4574C144.571 51.4863 144.623 51.5152 144.681 51.5414C144.744 51.5702 144.809 51.5939 144.88 51.6148C144.956 51.6306 145.04 51.6358 145.132 51.6358C145.25 51.6358 145.355 51.6227 145.447 51.5939C145.536 51.5598 145.615 51.5152 145.678 51.4574C145.741 51.3945 145.788 51.3263 145.825 51.2476C145.859 51.1636 145.877 51.0745 145.877 50.9748C145.877 50.8646 145.848 50.7754 145.793 50.7125C145.743 50.6442 145.678 50.5839 145.594 50.5341C145.515 50.4869 145.426 50.4475 145.321 50.4187C145.216 50.3846 145.111 50.3504 145.006 50.3137C144.901 50.2796 144.796 50.2403 144.691 50.1983C144.586 50.1511 144.492 50.0908 144.408 50.0199C144.329 49.9439 144.266 49.852 144.219 49.7471C144.169 49.6369 144.146 49.5005 144.146 49.3379C144.146 49.212 144.169 49.0913 144.219 48.9706C144.266 48.8526 144.337 48.7477 144.429 48.6559C144.526 48.5588 144.644 48.4853 144.786 48.4355C144.925 48.3804 145.082 48.3516 145.258 48.3516C145.46 48.3516 145.646 48.383 145.814 48.446C145.982 48.509 146.129 48.6008 146.255 48.7188L146.129 48.9497Z" fill="white"/>
<path d="M58.1696 39.1571C55.7484 36.5208 54.5391 33.2863 54.5391 29.4512C54.5391 25.6187 55.7484 22.3738 58.1696 19.7138C60.5882 17.0565 63.6626 15.7266 67.3928 15.7266C70.8187 15.7266 73.6413 16.8047 75.8605 18.9584V16.4925H84.7899V42.3574H75.9655V39.4299H75.8605C73.6413 41.8852 70.8187 43.1129 67.3928 43.1129C63.6626 43.1129 60.5882 41.796 58.1696 39.1571ZM65.7559 25.0652C64.5938 26.2063 64.0141 27.6674 64.0141 29.4512C64.0141 31.2297 64.565 32.6804 65.672 33.8057C66.7842 34.9337 68.248 35.4951 70.0685 35.4951C71.8155 35.4951 73.2531 34.9258 74.381 33.7847C75.5064 32.6463 76.0704 31.2009 76.0704 29.4512C76.0704 27.6674 75.488 26.2063 74.3286 25.0652C73.1665 23.9189 71.7473 23.3444 70.0685 23.3444C68.3529 23.3444 66.9154 23.9189 65.7559 25.0652Z" fill="white"/>
<path d="M100.319 23.0401C98.6403 23.0401 97.1949 23.6644 95.9856 24.9078C94.7737 26.1538 94.1704 27.6517 94.1704 29.3987C94.1704 31.1825 94.7737 32.6987 95.9856 33.9421C97.1949 35.1803 98.6403 35.7994 100.319 35.7994C101.13 35.7994 101.896 35.7023 102.617 35.5056C103.336 35.3036 103.866 35.1016 104.202 34.897L104.663 34.5927L107.685 40.794C107.446 40.9619 107.119 41.1717 106.699 41.4235C106.279 41.6754 105.319 42.019 103.824 42.4518C102.334 42.8925 100.728 43.1129 99.0076 43.1129C95.2091 43.1129 91.8724 41.7777 88.9974 39.1046C86.1276 36.4342 84.6953 33.2286 84.6953 29.4932C84.6953 25.7315 86.1276 22.4944 88.9974 19.7873C91.8724 17.0801 95.2091 15.7266 99.0076 15.7266C100.728 15.7266 102.308 15.9312 103.75 16.3351C105.198 16.7417 106.221 17.1431 106.825 17.5418L107.685 18.1504L104.663 24.2572C103.551 23.4467 102.103 23.0401 100.319 23.0401Z" fill="white"/>
<path d="M133.185 30.6579H114.424C114.424 32.4784 115.012 33.8241 116.187 34.6976C117.362 35.5659 118.637 35.9987 120.017 35.9987C121.465 35.9987 122.609 35.8072 123.448 35.4216C124.287 35.0386 125.245 34.2753 126.323 33.1342L132.776 36.3555C130.09 40.8622 125.62 43.1129 119.366 43.1129C115.463 43.1129 112.116 41.7777 109.325 39.1046C106.539 36.4342 105.148 33.2155 105.148 29.4512C105.148 25.6817 106.539 22.4525 109.325 19.7663C112.116 17.0749 115.463 15.7266 119.366 15.7266C123.464 15.7266 126.798 16.9123 129.366 19.2836C131.939 21.655 133.227 25.0442 133.227 29.4512C133.227 30.0545 133.212 30.4559 133.185 30.6579ZM114.676 25.7158H124.508C124.303 24.3727 123.773 23.3417 122.913 22.6204C122.058 21.8937 120.961 21.5291 119.618 21.5291C118.133 21.5291 116.956 21.9173 116.082 22.6938C115.206 23.465 114.739 24.4723 114.676 25.7158Z" fill="white"/>
<path d="M161.028 10.4928C161.028 14.69 159.247 17.8326 155.687 19.9154C157.904 20.9306 159.677 22.3786 161.007 24.2595C162.334 26.1429 163.001 28.4435 163.001 31.1638C163.001 34.5582 161.427 37.3965 158.279 39.6839C155.136 41.9714 151.532 43.1151 147.461 43.1151C143.29 43.1151 139.649 41.9819 136.538 39.7154C133.432 37.4437 131.879 34.5923 131.879 31.1638C131.879 25.8911 134.298 22.1399 139.14 19.9154C135.473 17.8326 133.642 14.69 133.642 10.4928C133.642 7.53386 135.042 5.04706 137.849 3.03243C140.661 1.01256 143.846 0 147.408 0C151.073 0 154.26 1.00207 156.967 3.00095C159.674 5.00247 161.028 7.49976 161.028 10.4928ZM152.057 11.8464C152.057 10.5033 151.626 9.38848 150.766 8.49921C149.911 7.60469 148.809 7.15612 147.461 7.15612C146.118 7.15612 144.998 7.60469 144.103 8.49921C143.214 9.38848 142.77 10.5086 142.77 11.8569C142.77 13.2 143.224 14.3096 144.135 15.1832C145.042 16.0593 146.152 16.4948 147.461 16.4948C148.809 16.4948 149.911 16.0645 150.766 15.2041C151.626 14.3437 152.057 13.2262 152.057 11.8464ZM143.652 25.8439C142.666 26.8381 142.172 28.1077 142.172 29.6528C142.172 31.2005 142.658 32.4701 143.631 33.4617C144.601 34.4559 145.861 34.9517 147.408 34.9517C148.925 34.9517 150.189 34.4559 151.196 33.4617C152.204 32.4701 152.707 31.2005 152.707 29.6528C152.707 28.1077 152.193 26.8381 151.165 25.8439C150.142 24.8523 148.89 24.3539 147.408 24.3539C145.897 24.3539 144.643 24.8523 143.652 25.8439Z" fill="#787878"/>
<path d="M13.7131 36.1681C11.8351 39.6765 14.377 43.9275 18.3609 43.9275H5.2779C1.29801 43.9275 -1.24786 39.6804 0.630115 36.1681L1.34909 34.8205L16.9072 5.76298L18.1723 3.39783C20.1563 -0.314902 25.4799 -0.314902 27.4639 3.39783L29.3576 6.93769L23.4487 17.9816L14.432 34.8205L13.7131 36.1681Z" fill="white"/>
<path d="M40.3527 43.9272H30.7349C26.755 43.9272 24.2092 39.6802 26.0871 36.1678L28.3226 31.9915L35.5399 18.5078L44.9926 36.1678C46.8784 39.6802 44.3326 43.9272 40.3527 43.9272Z" fill="white"/>
<path d="M35.5539 18.504V18.5118L28.3327 31.9877C28.9574 30.8051 29.1381 29.3868 28.7099 27.9999C28.6863 27.9331 28.6667 27.8624 28.6431 27.7956C28.5527 27.5481 28.4388 27.3006 28.3131 27.057L24.2742 19.5137L23.4531 17.9775L29.366 6.92969L30.1871 8.46585L34.6778 16.8499L35.5539 18.504Z" fill="#7D7D7D"/>
<path d="M40.3527 43.9272H30.7349C26.755 43.9272 24.2092 39.6802 26.0871 36.1678L28.3226 31.9915L35.5399 18.5078L44.9926 36.1678C46.8784 39.6802 44.3326 43.9272 40.3527 43.9272Z" fill="white"/>
<path d="M40.3527 43.9272H30.7349C26.755 43.9272 24.2092 39.6802 26.0871 36.1678L28.3226 31.9915L35.5399 18.5078L44.9926 36.1678C46.8784 39.6802 44.3326 43.9272 40.3527 43.9272Z" fill="white"/>
<g opacity="0.1">
<mask id="mask0_1_35940" style="mask-type:luminance" maskUnits="userSpaceOnUse" x="23" y="6" width="8" height="14">
<path d="M30.1597 6.9375H23.4297V19.5215H30.1597V6.9375Z" fill="white"/>
</mask>
<g mask="url(#mask0_1_35940)">
<path d="M30.1597 8.46974L24.2469 19.5215L23.4297 17.9853L29.3386 6.9375L30.1597 8.46974Z" fill="white"/>
</g>
</g>
<g opacity="0.1">
<mask id="mask1_1_35940" style="mask-type:luminance" maskUnits="userSpaceOnUse" x="28" y="16" width="8" height="16">
<path d="M35.5493 16.8555H28.3281V31.9893H35.5493V16.8555Z" fill="white"/>
</mask>
<g mask="url(#mask1_1_35940)">
<path d="M35.5493 18.5017V18.5095L28.3281 31.9854C28.9528 30.8028 29.1335 29.3845 28.7053 27.9976L34.6692 16.8516L35.5493 18.5017Z" fill="white"/>
</g>
</g>
</svg>
