<svg width="76" height="25" viewBox="0 0 76 25" fill="none" xmlns="http://www.w3.org/2000/svg">
<path d="M34.7145 22.7543H34.1665V24.2465H33.9415V22.7543H33.3936V22.5586H34.7145V22.7543Z" fill="white"/>
<path d="M37.5626 24.0605L37.5577 24.2465H36.5205V22.5586H37.5577V22.7445H36.7504V23.3071H37.406V23.4832H36.7504V24.0605H37.5626Z" fill="white"/>
<path d="M40.6158 23.8981C40.628 23.8981 40.6403 23.903 40.65 23.9128L40.7381 24.0107C40.6696 24.089 40.5864 24.1513 40.4886 24.1966C40.3907 24.2431 40.2709 24.2651 40.1314 24.2651C40.0104 24.2651 39.8991 24.2443 39.7988 24.2015C39.7009 24.1599 39.6153 24.1012 39.5444 24.0254C39.4759 23.9507 39.4221 23.8615 39.3829 23.7563C39.3462 23.6486 39.3291 23.5312 39.3291 23.404C39.3291 23.2768 39.3487 23.1619 39.3878 23.0567C39.4269 22.949 39.482 22.8585 39.5541 22.7827C39.6288 22.7044 39.7168 22.6457 39.8183 22.6066C39.9186 22.565 40.0299 22.543 40.151 22.543C40.2709 22.543 40.3773 22.5625 40.469 22.6017C40.5632 22.6384 40.6451 22.6885 40.7136 22.7533L40.6403 22.861C40.6329 22.8683 40.6268 22.8744 40.6207 22.8805C40.6133 22.8842 40.6036 22.8854 40.5913 22.8854C40.5742 22.8854 40.5571 22.8793 40.5375 22.8659C40.5179 22.85 40.491 22.8316 40.4592 22.812C40.4262 22.7925 40.3834 22.7766 40.332 22.7631C40.2831 22.7472 40.222 22.7387 40.151 22.7387C40.063 22.7387 39.9822 22.7533 39.9113 22.7827C39.8391 22.812 39.7768 22.8561 39.7254 22.9148C39.6728 22.9735 39.6324 23.0444 39.6031 23.1252C39.5737 23.2071 39.559 23.3001 39.559 23.404C39.559 23.5092 39.5737 23.6034 39.6031 23.6878C39.6349 23.7697 39.6777 23.8382 39.7303 23.8933C39.7816 23.9495 39.8428 23.9936 39.9113 24.0254C39.9822 24.0547 40.0605 24.0694 40.1461 24.0694C40.195 24.0694 40.2391 24.0669 40.2782 24.0596C40.3198 24.0535 40.3577 24.0437 40.3907 24.0302C40.4262 24.018 40.4592 24.0033 40.4886 23.9862C40.5179 23.9666 40.5473 23.9422 40.5767 23.9128C40.5889 23.903 40.6023 23.8981 40.6158 23.8981Z" fill="white"/>
<path d="M43.9167 22.5586V24.2465H43.6917V23.4784H42.7817V24.2465H42.5518V22.5586H42.7817V23.312H43.6917V22.5586H43.9167Z" fill="white"/>
<path d="M47.2693 22.5586V24.2465H47.1567C47.1372 24.2465 47.12 24.244 47.1078 24.2367C47.098 24.2306 47.0858 24.2208 47.0736 24.2073L46.1 22.9353C46.1 22.9549 46.1 22.9744 46.1 22.994C46.1024 23.0111 46.1049 23.027 46.1049 23.0429V24.2465H45.9043V22.5586H46.0217C46.0315 22.5586 46.0388 22.561 46.0462 22.5635C46.056 22.5635 46.0621 22.5659 46.0657 22.5684C46.0719 22.572 46.0768 22.5769 46.0804 22.5831C46.0865 22.5867 46.0927 22.5916 46.1 22.5977L47.0785 23.8697C47.0748 23.8502 47.0711 23.8306 47.0687 23.811C47.0687 23.7915 47.0687 23.7719 47.0687 23.7523V22.5586H47.2693Z" fill="white"/>
<path d="M50.803 23.404C50.803 23.5312 50.7835 23.6474 50.7443 23.7514C50.7052 23.8566 50.6477 23.9471 50.5731 24.0254C50.5009 24.1012 50.4129 24.1599 50.3089 24.2015C50.2074 24.2443 50.0949 24.2651 49.9713 24.2651C49.8466 24.2651 49.7341 24.2443 49.6338 24.2015C49.5322 24.1599 49.4442 24.1012 49.3696 24.0254C49.2974 23.9471 49.2424 23.8566 49.2032 23.7514C49.1641 23.6474 49.1445 23.5312 49.1445 23.404C49.1445 23.2768 49.1641 23.1619 49.2032 23.0567C49.2424 22.949 49.2974 22.8585 49.3696 22.7827C49.4442 22.7044 49.5322 22.6457 49.6338 22.6066C49.7341 22.565 49.8466 22.543 49.9713 22.543C50.0949 22.543 50.2074 22.565 50.3089 22.6066C50.4129 22.6457 50.5009 22.7044 50.5731 22.7827C50.6477 22.8585 50.7052 22.949 50.7443 23.0567C50.7835 23.1619 50.803 23.2768 50.803 23.404ZM50.5731 23.404C50.5731 23.3001 50.5584 23.2071 50.5291 23.1252C50.4997 23.0444 50.4581 22.9759 50.4068 22.9197C50.3578 22.861 50.2955 22.8169 50.2208 22.7876C50.145 22.7558 50.0618 22.7387 49.9713 22.7387C49.8833 22.7387 49.8013 22.7558 49.7267 22.7876C49.6546 22.8169 49.5922 22.861 49.5408 22.9197C49.4882 22.9759 49.4479 23.0444 49.4185 23.1252C49.3891 23.2071 49.3745 23.3001 49.3745 23.404C49.3745 23.5092 49.3891 23.6022 49.4185 23.6829C49.4479 23.7648 49.4882 23.8345 49.5408 23.8933C49.5922 23.9495 49.6546 23.9911 49.7267 24.0205C49.8013 24.0498 49.8833 24.0645 49.9713 24.0645C50.0618 24.0645 50.145 24.0498 50.2208 24.0205C50.2955 23.9911 50.3578 23.9495 50.4068 23.8933C50.4581 23.8345 50.4997 23.7648 50.5291 23.6829C50.5584 23.6022 50.5731 23.5092 50.5731 23.404Z" fill="white"/>
<path d="M53.6474 24.0557V24.2465H52.6885V22.5586H52.9135V24.0557H53.6474Z" fill="white"/>
<path d="M57.012 23.404C57.012 23.5312 56.9925 23.6474 56.9533 23.7514C56.9142 23.8566 56.8567 23.9471 56.7821 24.0254C56.7099 24.1012 56.6219 24.1599 56.5179 24.2015C56.4164 24.2443 56.3039 24.2651 56.1803 24.2651C56.0556 24.2651 55.943 24.2443 55.8428 24.2015C55.7412 24.1599 55.6532 24.1012 55.5786 24.0254C55.5064 23.9471 55.4514 23.8566 55.4122 23.7514C55.3731 23.6474 55.3535 23.5312 55.3535 23.404C55.3535 23.2768 55.3731 23.1619 55.4122 23.0567C55.4514 22.949 55.5064 22.8585 55.5786 22.7827C55.6532 22.7044 55.7412 22.6457 55.8428 22.6066C55.943 22.565 56.0556 22.543 56.1803 22.543C56.3039 22.543 56.4164 22.565 56.5179 22.6066C56.6219 22.6457 56.7099 22.7044 56.7821 22.7827C56.8567 22.8585 56.9142 22.949 56.9533 23.0567C56.9925 23.1619 57.012 23.2768 57.012 23.404ZM56.7821 23.404C56.7821 23.3001 56.7674 23.2071 56.7381 23.1252C56.7087 23.0444 56.6671 22.9759 56.6157 22.9197C56.5668 22.861 56.5044 22.8169 56.4298 22.7876C56.354 22.7558 56.2708 22.7387 56.1803 22.7387C56.0923 22.7387 56.0103 22.7558 55.9357 22.7876C55.8635 22.8169 55.8012 22.861 55.7498 22.9197C55.6972 22.9759 55.6568 23.0444 55.6275 23.1252C55.5981 23.2071 55.5835 23.3001 55.5835 23.404C55.5835 23.5092 55.5981 23.6022 55.6275 23.6829C55.6568 23.7648 55.6972 23.8345 55.7498 23.8933C55.8012 23.9495 55.8635 23.9911 55.9357 24.0205C56.0103 24.0498 56.0923 24.0645 56.1803 24.0645C56.2708 24.0645 56.354 24.0498 56.4298 24.0205C56.5044 23.9911 56.5668 23.9495 56.6157 23.8933C56.6671 23.8345 56.7087 23.7648 56.7381 23.6829C56.7674 23.6022 56.7821 23.5092 56.7821 23.404Z" fill="white"/>
<path d="M60.2538 23.4334V24.0841C60.1682 24.1428 60.0777 24.1892 59.9799 24.221C59.8845 24.2504 59.7805 24.2651 59.6668 24.2651C59.5298 24.2651 59.405 24.2443 59.2949 24.2015C59.1873 24.1599 59.0944 24.1012 59.0161 24.0254C58.9403 23.9507 58.8815 23.8615 58.84 23.7563C58.8008 23.6486 58.7812 23.5312 58.7812 23.404C58.7812 23.2744 58.8008 23.157 58.84 23.0518C58.8791 22.9441 58.9354 22.8536 59.0112 22.7778C59.0858 22.7032 59.1751 22.6457 59.2803 22.6066C59.3879 22.565 59.5078 22.543 59.6423 22.543C59.7071 22.543 59.7671 22.5479 59.8233 22.5576C59.882 22.5674 59.9358 22.5821 59.9848 22.6017C60.0337 22.6188 60.0789 22.6396 60.1218 22.6653C60.1633 22.6922 60.2025 22.7215 60.2392 22.7533L60.1756 22.8561C60.1621 22.8732 60.1474 22.8842 60.1315 22.8903C60.1181 22.894 60.1022 22.8891 60.0826 22.8756C60.063 22.8659 60.0398 22.8536 60.0141 22.8365C59.9909 22.8206 59.9615 22.8059 59.9261 22.7925C59.893 22.7766 59.8527 22.7631 59.8038 22.7533C59.7548 22.7436 59.6973 22.7387 59.6325 22.7387C59.5371 22.7387 59.4515 22.7558 59.3732 22.7876C59.2974 22.8169 59.2326 22.861 59.1775 22.9197C59.1249 22.9759 59.0846 23.0457 59.0552 23.1301C59.0259 23.212 59.0112 23.3037 59.0112 23.404C59.0112 23.5092 59.0259 23.6034 59.0552 23.6878C59.087 23.7697 59.1311 23.8394 59.1873 23.8981C59.2424 23.9569 59.3096 24.0033 59.3879 24.0351C59.4686 24.0645 59.5604 24.0792 59.6619 24.0792C59.7402 24.0792 59.8086 24.0718 59.8674 24.0547C59.9285 24.0351 59.9897 24.0107 60.0484 23.9813V23.6095H59.7842C59.7707 23.6095 59.7597 23.6071 59.7499 23.5997C59.7402 23.5899 59.7353 23.5789 59.7353 23.5655V23.4334H60.2538Z" fill="white"/>
<path d="M62.393 24.2465H62.1631V22.5586H62.393V24.2465Z" fill="white"/>
<path d="M65.4034 24.0605L65.3985 24.2465H64.3613V22.5586H65.3985V22.7445H64.5913V23.3071H65.2468V23.4832H64.5913V24.0605H65.4034Z" fill="white"/>
<path d="M68.1338 22.8218C68.1264 22.8353 68.1191 22.8451 68.1093 22.8512C68.102 22.8549 68.0922 22.8561 68.08 22.8561C68.0665 22.8561 68.0506 22.85 68.031 22.8365C68.0139 22.8243 67.9931 22.8096 67.9674 22.7925C67.9405 22.7766 67.9087 22.7619 67.8696 22.7484C67.8305 22.7362 67.784 22.7289 67.7326 22.7289C67.68 22.7289 67.6348 22.7374 67.5956 22.7533C67.5565 22.7668 67.5235 22.7851 67.4978 22.8072C67.4709 22.8304 67.4513 22.8585 67.4391 22.8903C67.4256 22.9233 67.4195 22.9576 67.4195 22.9931C67.4195 23.0395 67.4305 23.0787 67.4537 23.1105C67.4758 23.1398 67.5076 23.1667 67.5467 23.1888C67.5858 23.212 67.6274 23.2316 67.6739 23.2475C67.7228 23.2646 67.7717 23.2805 67.8207 23.2964C67.872 23.3135 67.9234 23.3331 67.9723 23.3551C68.0213 23.3747 68.0628 23.4028 68.0995 23.4383C68.1387 23.4713 68.1693 23.5117 68.1925 23.5606C68.2145 23.6071 68.2267 23.6633 68.2267 23.7318C68.2267 23.8076 68.2133 23.8774 68.1876 23.9422C68.1644 24.0082 68.1289 24.0645 68.08 24.1134C68.031 24.1599 67.9699 24.1966 67.8989 24.2259C67.8305 24.2516 67.7522 24.2651 67.6641 24.2651C67.5528 24.2651 67.4513 24.2455 67.3608 24.2064C67.2727 24.1672 67.1969 24.1134 67.1357 24.0449L67.1993 23.9373C67.2055 23.9275 67.214 23.9202 67.2238 23.9128C67.2336 23.9067 67.2434 23.903 67.2532 23.903C67.2629 23.903 67.274 23.9079 67.2874 23.9177C67.2996 23.9275 67.3143 23.9397 67.3314 23.952C67.3473 23.9618 67.3657 23.9752 67.3853 23.9911C67.4073 24.0046 67.4317 24.018 67.4586 24.0302C67.488 24.0437 67.5186 24.0547 67.5516 24.0645C67.5871 24.0718 67.6262 24.0743 67.669 24.0743C67.724 24.0743 67.773 24.0682 67.8158 24.0547C67.8574 24.0388 67.8941 24.018 67.9234 23.9911C67.9528 23.9618 67.9748 23.9299 67.9919 23.8933C68.0078 23.8541 68.0164 23.8125 68.0164 23.7661C68.0164 23.7147 68.0029 23.6731 67.9772 23.6437C67.954 23.6119 67.9234 23.5838 67.8843 23.5606C67.8476 23.5386 67.806 23.5202 67.7571 23.5068C67.7081 23.4909 67.6592 23.475 67.6103 23.4578C67.5614 23.4419 67.5125 23.4236 67.4635 23.404C67.4146 23.382 67.3706 23.3539 67.3314 23.3209C67.2947 23.2854 67.2654 23.2426 67.2434 23.1937C67.2201 23.1423 67.2091 23.0787 67.2091 23.0028C67.2091 22.9441 67.2201 22.8879 67.2434 22.8316C67.2654 22.7766 67.2984 22.7277 67.3412 22.6848C67.3865 22.6396 67.4415 22.6053 67.5076 22.5821C67.5724 22.5564 67.6458 22.543 67.7277 22.543C67.8219 22.543 67.9087 22.5576 67.987 22.587C68.0653 22.6164 68.1338 22.6592 68.1925 22.7142L68.1338 22.8218Z" fill="white"/>
<path d="M27.1215 18.2566C25.9926 17.0274 25.4287 15.5194 25.4287 13.7312C25.4287 11.9443 25.9926 10.4313 27.1215 9.19112C28.2492 7.95214 29.6826 7.33203 31.4218 7.33203C33.0192 7.33203 34.3352 7.83472 35.37 8.83887V7.68917H39.5334V19.7488H35.4189V18.3838H35.37C34.3352 19.5287 33.0192 20.1011 31.4218 20.1011C29.6826 20.1011 28.2492 19.4871 27.1215 18.2566ZM30.6586 11.6862C30.1168 12.2183 29.8465 12.8995 29.8465 13.7312C29.8465 14.5605 30.1034 15.2368 30.6195 15.7615C31.1381 16.2875 31.8206 16.5492 32.6694 16.5492C33.484 16.5492 34.1542 16.2838 34.6801 15.7518C35.2048 15.2209 35.4678 14.547 35.4678 13.7312C35.4678 12.8995 35.1963 12.2183 34.6557 11.6862C34.1139 11.1517 33.4522 10.8839 32.6694 10.8839C31.8695 10.8839 31.1992 11.1517 30.6586 11.6862Z" fill="white"/>
<path d="M46.774 10.742C45.9912 10.742 45.3173 11.0331 44.7534 11.6128C44.1884 12.1938 43.907 12.8922 43.907 13.7068C43.907 14.5385 44.1884 15.2454 44.7534 15.8251C45.3173 16.4024 45.9912 16.6911 46.774 16.6911C47.1519 16.6911 47.509 16.6458 47.8454 16.5541C48.1805 16.4599 48.4276 16.3658 48.5841 16.2704L48.7994 16.1285L50.2084 19.0199C50.0971 19.0981 49.9442 19.196 49.7485 19.3134C49.5528 19.4308 49.1052 19.591 48.408 19.7928C47.7133 19.9983 46.9648 20.1011 46.1624 20.1011C44.3914 20.1011 42.8356 19.4785 41.4951 18.2322C40.1571 16.9871 39.4893 15.4925 39.4893 13.7508C39.4893 11.9969 40.1571 10.4876 41.4951 9.22537C42.8356 7.96314 44.3914 7.33203 46.1624 7.33203C46.9648 7.33203 47.7011 7.42743 48.3738 7.61579C49.0489 7.80537 49.5259 7.9925 49.8072 8.17841L50.2084 8.46216L48.7994 11.3095C48.2808 10.9316 47.6057 10.742 46.774 10.742Z" fill="white"/>
<path d="M62.0977 14.2938H53.3502C53.3502 15.1427 53.6242 15.7701 54.1721 16.1774C54.7201 16.5822 55.3145 16.784 55.9578 16.784C56.633 16.784 57.1663 16.6948 57.5576 16.515C57.949 16.3364 58.3955 15.9805 58.8982 15.4484L61.9069 16.9504C60.6545 19.0517 58.5704 20.1011 55.6545 20.1011C53.8346 20.1011 52.2739 19.4785 50.9725 18.2322C49.6736 16.9871 49.0254 15.4864 49.0254 13.7312C49.0254 11.9736 49.6736 10.468 50.9725 9.21559C52.2739 7.9607 53.8346 7.33203 55.6545 7.33203C57.565 7.33203 59.1195 7.88487 60.3169 8.99054C61.5168 10.0962 62.1173 11.6764 62.1173 13.7312C62.1173 14.0125 62.11 14.1997 62.0977 14.2938ZM53.4676 11.9895H58.0518C57.9564 11.3633 57.7093 10.8827 57.3081 10.5463C56.9094 10.2075 56.3982 10.0375 55.7719 10.0375C55.0797 10.0375 54.5305 10.2185 54.1232 10.5806C53.7147 10.9401 53.497 11.4098 53.4676 11.9895Z" fill="white"/>
<path d="M75.0802 4.89235C75.0802 6.84929 74.2497 8.31455 72.59 9.28568C73.6235 9.75902 74.4503 10.4342 75.0704 11.3111C75.6893 12.1893 76 13.2619 76 14.5303C76 16.113 75.2661 17.4363 73.7984 18.5029C72.3332 19.5694 70.6526 20.1027 68.7544 20.1027C66.8097 20.1027 65.112 19.5743 63.6615 18.5175C62.2133 17.4583 61.4893 16.1289 61.4893 14.5303C61.4893 12.0719 62.6169 10.3229 64.8748 9.28568C63.1649 8.31455 62.3112 6.84929 62.3112 4.89235C62.3112 3.51271 62.9643 2.35322 64.273 1.41389C65.5842 0.472112 67.069 0 68.7299 0C70.4386 0 71.9246 0.467219 73.1869 1.39921C74.4491 2.33243 75.0802 3.49681 75.0802 4.89235ZM70.8972 5.52346C70.8972 4.89724 70.6967 4.37743 70.2955 3.9628C69.8968 3.54573 69.3831 3.33658 68.7544 3.33658C68.1282 3.33658 67.6059 3.54573 67.1888 3.9628C66.7742 4.37743 66.5675 4.89969 66.5675 5.52836C66.5675 6.15458 66.7791 6.67194 67.2035 7.07923C67.6267 7.48774 68.1441 7.69077 68.7544 7.69077C69.3831 7.69077 69.8968 7.49019 70.2955 7.08901C70.6967 6.68784 70.8972 6.16681 70.8972 5.52346ZM66.9785 12.0499C66.5186 12.5134 66.2887 13.1054 66.2887 13.8258C66.2887 14.5474 66.5149 15.1394 66.9687 15.6017C67.4212 16.0653 68.0083 16.2964 68.7299 16.2964C69.4369 16.2964 70.0264 16.0653 70.4961 15.6017C70.9657 15.1394 71.2006 14.5474 71.2006 13.8258C71.2006 13.1054 70.9608 12.5134 70.4814 12.0499C70.0044 11.5875 69.421 11.3551 68.7299 11.3551C68.0254 11.3551 67.4408 11.5875 66.9785 12.0499Z" fill="#787878"/>
<path d="M6.3938 16.8628C5.51818 18.4986 6.70338 20.4807 8.56085 20.4807H2.46085C0.605206 20.4807 -0.581821 18.5004 0.293795 16.8628L0.62902 16.2345L7.88308 2.68623L8.47293 1.58347C9.398 -0.147614 11.8801 -0.147614 12.8052 1.58347L13.6882 3.23395L10.9331 8.38323L6.72902 16.2345L6.3938 16.8628Z" fill="white"/>
<path d="M18.8143 20.4809H14.33C12.4743 20.4809 11.2873 18.5007 12.1629 16.863L13.2052 14.9158L16.5703 8.62891L20.9777 16.863C21.857 18.5007 20.67 20.4809 18.8143 20.4809Z" fill="white"/>
<path d="M16.5776 8.62705V8.63071L13.2107 14.9139C13.5019 14.3625 13.5862 13.7012 13.3865 13.0546C13.3755 13.0234 13.3664 12.9905 13.3554 12.9593C13.3133 12.8439 13.2601 12.7285 13.2015 12.6149L11.3184 9.09783L10.9355 8.38158L13.6925 3.23047L14.0753 3.94672L16.1691 7.85584L16.5776 8.62705Z" fill="#7D7D7D"/>
<path d="M18.8143 20.4809H14.33C12.4743 20.4809 11.2873 18.5007 12.1629 16.863L13.2052 14.9158L16.5703 8.62891L20.9777 16.863C21.857 18.5007 20.67 20.4809 18.8143 20.4809Z" fill="white"/>
<path d="M18.8143 20.4809H14.33C12.4743 20.4809 11.2873 18.5007 12.1629 16.863L13.2052 14.9158L16.5703 8.62891L20.9777 16.863C21.857 18.5007 20.67 20.4809 18.8143 20.4809Z" fill="white"/>
<g opacity="0.1">
<mask id="mask0_40_1048" style="mask-type:luminance" maskUnits="userSpaceOnUse" x="10" y="3" width="5" height="7">
<path d="M14.0618 3.23438H10.9238V9.10173H14.0618V3.23438Z" fill="white"/>
</mask>
<g mask="url(#mask0_40_1048)">
<path d="M14.0618 3.94879L11.3048 9.10173L10.9238 8.38549L13.6789 3.23438L14.0618 3.94879Z" fill="white"/>
</g>
</g>
<g opacity="0.1">
<mask id="mask1_40_1048" style="mask-type:luminance" maskUnits="userSpaceOnUse" x="13" y="7" width="4" height="8">
<path d="M16.5749 7.85938H13.208V14.9156H16.5749V7.85938Z" fill="white"/>
</mask>
<g mask="url(#mask1_40_1048)">
<path d="M16.5749 8.62874V8.63241L13.208 14.9156C13.4993 14.3642 13.5835 13.7029 13.3839 13.0563L16.1646 7.85938L16.5749 8.62874Z" fill="white"/>
</g>
</g>
</svg>
